<?xml version="1.0" standalone="no"?>
<svg xmlns:xlink="http://www.w3.org/1999/xlink" id="wave" style="transform:rotate(180deg); transition: 0.3s" viewBox="0 0 1440 160" version="1.1" xmlns="http://www.w3.org/2000/svg"><defs><linearGradient id="sw-gradient-0" x1="0" x2="0" y1="1" y2="0"><stop stop-color="rgba(153, 217, 140, 1)" offset="0%"/><stop stop-color="rgba(153, 217, 140, 1)" offset="100%"/></linearGradient></defs><path style="transform:translate(0, 0px); opacity:1" fill="url(#sw-gradient-0)" d="M0,48L24,45.3C48,43,96,37,144,50.7C192,64,240,96,288,93.3C336,91,384,53,432,53.3C480,53,528,91,576,101.3C624,112,672,96,720,82.7C768,69,816,59,864,66.7C912,75,960,101,1008,96C1056,91,1104,53,1152,42.7C1200,32,1248,48,1296,48C1344,48,1392,32,1440,32C1488,32,1536,48,1584,61.3C1632,75,1680,85,1728,88C1776,91,1824,85,1872,82.7C1920,80,1968,80,2016,80C2064,80,2112,80,2160,69.3C2208,59,2256,37,2304,26.7C2352,16,2400,16,2448,32C2496,48,2544,80,2592,82.7C2640,85,2688,59,2736,56C2784,53,2832,75,2880,85.3C2928,96,2976,96,3024,104C3072,112,3120,128,3168,125.3C3216,123,3264,101,3312,85.3C3360,69,3408,59,3432,53.3L3456,48L3456,160L3432,160C3408,160,3360,160,3312,160C3264,160,3216,160,3168,160C3120,160,3072,160,3024,160C2976,160,2928,160,2880,160C2832,160,2784,160,2736,160C2688,160,2640,160,2592,160C2544,160,2496,160,2448,160C2400,160,2352,160,2304,160C2256,160,2208,160,2160,160C2112,160,2064,160,2016,160C1968,160,1920,160,1872,160C1824,160,1776,160,1728,160C1680,160,1632,160,1584,160C1536,160,1488,160,1440,160C1392,160,1344,160,1296,160C1248,160,1200,160,1152,160C1104,160,1056,160,1008,160C960,160,912,160,864,160C816,160,768,160,720,160C672,160,624,160,576,160C528,160,480,160,432,160C384,160,336,160,288,160C240,160,192,160,144,160C96,160,48,160,24,160L0,160Z"/></svg>