<?xml version="1.0" standalone="no"?>
<svg xmlns:xlink="http://www.w3.org/1999/xlink" id="wave" style="transform:rotate(180deg); transition: 0.3s" viewBox="0 0 1440 140" version="1.1" xmlns="http://www.w3.org/2000/svg"><defs><linearGradient id="sw-gradient-0" x1="0" x2="0" y1="1" y2="0"><stop stop-color="rgba(91, 42, 134, 1)" offset="0%"/><stop stop-color="rgba(91, 42, 134, 1)" offset="100%"/></linearGradient></defs><path style="transform:translate(0, 0px); opacity:1" fill="url(#sw-gradient-0)" d="M0,56L17.1,49C34.3,42,69,28,103,30.3C137.1,33,171,51,206,63C240,75,274,79,309,77C342.9,75,377,65,411,60.7C445.7,56,480,56,514,58.3C548.6,61,583,65,617,60.7C651.4,56,686,42,720,32.7C754.3,23,789,19,823,18.7C857.1,19,891,23,926,42C960,61,994,93,1029,98C1062.9,103,1097,79,1131,58.3C1165.7,37,1200,19,1234,18.7C1268.6,19,1303,37,1337,42C1371.4,47,1406,37,1440,49C1474.3,61,1509,93,1543,100.3C1577.1,107,1611,89,1646,77C1680,65,1714,61,1749,63C1782.9,65,1817,75,1851,72.3C1885.7,70,1920,56,1954,49C1988.6,42,2023,42,2057,49C2091.4,56,2126,70,2160,65.3C2194.3,61,2229,37,2263,23.3C2297.1,9,2331,5,2366,4.7C2400,5,2434,9,2451,11.7L2468.6,14L2468.6,140L2451.4,140C2434.3,140,2400,140,2366,140C2331.4,140,2297,140,2263,140C2228.6,140,2194,140,2160,140C2125.7,140,2091,140,2057,140C2022.9,140,1989,140,1954,140C1920,140,1886,140,1851,140C1817.1,140,1783,140,1749,140C1714.3,140,1680,140,1646,140C1611.4,140,1577,140,1543,140C1508.6,140,1474,140,1440,140C1405.7,140,1371,140,1337,140C1302.9,140,1269,140,1234,140C1200,140,1166,140,1131,140C1097.1,140,1063,140,1029,140C994.3,140,960,140,926,140C891.4,140,857,140,823,140C788.6,140,754,140,720,140C685.7,140,651,140,617,140C582.9,140,549,140,514,140C480,140,446,140,411,140C377.1,140,343,140,309,140C274.3,140,240,140,206,140C171.4,140,137,140,103,140C68.6,140,34,140,17,140L0,140Z"/></svg>